<svg xmlns="http://www.w3.org/2000/svg" xmlns:xlink="http://www.w3.org/1999/xlink" width="300" zoomAndPan="magnify" viewBox="0 0 224.87999 112.499997" height="150" preserveAspectRatio="xMidYMid meet" version="1.0"><defs><g/><clipPath id="1d9c0f60c1"><path d="M 73.117188 65.085938 L 84.789062 65.085938 L 84.789062 76.757812 L 73.117188 76.757812 Z M 73.117188 65.085938 " clip-rule="nonzero"/></clipPath><clipPath id="538a12dfc3"><path d="M 78.953125 65.085938 C 75.730469 65.085938 73.117188 67.699219 73.117188 70.921875 C 73.117188 74.144531 75.730469 76.757812 78.953125 76.757812 C 82.175781 76.757812 84.789062 74.144531 84.789062 70.921875 C 84.789062 67.699219 82.175781 65.085938 78.953125 65.085938 Z M 78.953125 65.085938 " clip-rule="nonzero"/></clipPath></defs><g clip-path="url(#1d9c0f60c1)"><g clip-path="url(#538a12dfc3)"><path fill="#ffde59" d="M 73.117188 65.085938 L 84.789062 65.085938 L 84.789062 76.757812 L 73.117188 76.757812 Z M 73.117188 65.085938 " fill-opacity="1" fill-rule="nonzero"/></g></g><g fill="#ffffff" fill-opacity="1"><g transform="translate(-0.0992663, 76.435828)"><g><path d="M 7.453125 -0.65625 C 7.273438 -0.4375 7.078125 -0.414062 6.859375 -0.59375 C 6.640625 -0.769531 6.550781 -1.054688 6.59375 -1.453125 C 6.6875 -1.804688 6.875 -2.242188 7.15625 -2.765625 C 7.445312 -3.296875 7.941406 -4.046875 8.640625 -5.015625 C 8.992188 -5.492188 9.289062 -5.921875 9.53125 -6.296875 C 9.769531 -6.671875 9.890625 -6.878906 9.890625 -6.921875 C 9.941406 -7.015625 10.03125 -7.125 10.15625 -7.25 C 10.289062 -7.382812 10.378906 -7.519531 10.421875 -7.65625 L 10.625 -8.046875 L 11.015625 -8.4375 L 11.609375 -9.171875 C 11.828125 -9.523438 12.054688 -9.863281 12.296875 -10.1875 C 12.546875 -10.519531 13.109375 -11.238281 13.984375 -12.34375 L 15.375 -14.046875 C 15.675781 -14.492188 16.09375 -15.023438 16.625 -15.640625 C 17.15625 -16.253906 17.648438 -16.832031 18.109375 -17.375 C 18.566406 -17.925781 18.882812 -18.289062 19.0625 -18.46875 C 19.15625 -18.507812 19.242188 -18.617188 19.328125 -18.796875 C 19.367188 -18.890625 19.421875 -18.957031 19.484375 -19 C 19.554688 -19.039062 19.613281 -19.082031 19.65625 -19.125 L 19.859375 -19.390625 L 20.3125 -19.921875 L 20.71875 -20.390625 L 21.3125 -20.984375 L 21.703125 -21.4375 C 21.785156 -21.570312 21.914062 -21.726562 22.09375 -21.90625 L 22.421875 -22.5 C 22.515625 -22.582031 22.613281 -22.664062 22.71875 -22.75 C 22.832031 -22.84375 22.929688 -22.957031 23.015625 -23.09375 C 23.109375 -23.21875 23.207031 -23.347656 23.3125 -23.484375 C 23.425781 -23.617188 23.523438 -23.726562 23.609375 -23.8125 L 24.34375 -24.671875 L 27.765625 -28.5625 L 28.5625 -29.421875 C 28.78125 -29.640625 28.976562 -29.859375 29.15625 -30.078125 C 29.332031 -30.296875 29.460938 -30.429688 29.546875 -30.484375 C 29.679688 -30.523438 29.796875 -30.65625 29.890625 -30.875 C 29.890625 -31.007812 29.929688 -31.078125 30.015625 -31.078125 C 30.015625 -31.078125 30.066406 -31.117188 30.171875 -31.203125 C 30.285156 -31.285156 30.390625 -31.394531 30.484375 -31.53125 L 31.859375 -33.046875 L 33.453125 -34.765625 L 34.046875 -35.359375 L 36.75 -38.203125 L 38.59375 -40.046875 C 38.632812 -40.085938 38.65625 -40.128906 38.65625 -40.171875 C 38.65625 -40.210938 38.675781 -40.234375 38.71875 -40.234375 L 38.921875 -40.375 C 39.003906 -40.414062 39.09375 -40.523438 39.1875 -40.703125 L 39.515625 -40.96875 L 40.703125 -42.28125 L 42.546875 -44.265625 L 42.953125 -44.734375 C 43.035156 -44.859375 43.144531 -44.988281 43.28125 -45.125 L 43.671875 -45.515625 L 43.734375 -45.65625 L 43.34375 -45.453125 C 43.425781 -45.628906 43.359375 -45.71875 43.140625 -45.71875 C 42.921875 -45.71875 42.460938 -45.671875 41.765625 -45.578125 C 40.128906 -45.410156 39.003906 -45.289062 38.390625 -45.21875 C 37.773438 -45.15625 37.425781 -45.101562 37.34375 -45.0625 C 37.25 -44.96875 37.160156 -44.941406 37.078125 -44.984375 C 37.035156 -44.984375 36.703125 -44.941406 36.078125 -44.859375 C 35.460938 -44.773438 34.894531 -44.6875 34.375 -44.59375 L 32.515625 -44.265625 L 31.734375 -44.140625 C 31.117188 -44.046875 30.359375 -43.851562 29.453125 -43.5625 C 28.554688 -43.28125 27.929688 -43.050781 27.578125 -42.875 C 27.265625 -42.695312 27.109375 -42.546875 27.109375 -42.421875 C 27.109375 -42.109375 26.910156 -42 26.515625 -42.09375 C 26.160156 -42.09375 26.050781 -42.332031 26.1875 -42.8125 C 26.28125 -42.988281 26.5 -43.164062 26.84375 -43.34375 C 27.195312 -43.519531 27.421875 -43.609375 27.515625 -43.609375 C 27.554688 -43.609375 27.664062 -43.648438 27.84375 -43.734375 C 28.019531 -43.867188 28.257812 -43.957031 28.5625 -44 L 29.75 -44.328125 C 30.1875 -44.460938 31 -44.628906 32.1875 -44.828125 C 33.375 -45.023438 34.5625 -45.210938 35.75 -45.390625 L 37.078125 -45.578125 L 40.90625 -46.046875 L 42.875 -46.25 L 43.671875 -46.3125 C 43.890625 -46.269531 44.085938 -46.269531 44.265625 -46.3125 C 44.347656 -46.394531 44.367188 -46.460938 44.328125 -46.515625 C 44.597656 -46.773438 44.734375 -47.082031 44.734375 -47.4375 L 44.921875 -47.4375 C 45.054688 -47.4375 45.253906 -47.476562 45.515625 -47.5625 C 45.609375 -47.65625 45.695312 -47.703125 45.78125 -47.703125 C 45.875 -47.703125 45.941406 -47.703125 45.984375 -47.703125 C 46.066406 -47.703125 46.148438 -47.710938 46.234375 -47.734375 C 46.328125 -47.753906 46.441406 -47.785156 46.578125 -47.828125 C 46.753906 -47.910156 46.972656 -47.941406 47.234375 -47.921875 C 47.492188 -47.898438 47.648438 -47.847656 47.703125 -47.765625 C 47.828125 -47.546875 47.648438 -47.347656 47.171875 -47.171875 C 47.078125 -47.128906 46.929688 -47.050781 46.734375 -46.9375 C 46.535156 -46.820312 46.328125 -46.722656 46.109375 -46.640625 L 46.703125 -46.640625 C 47.097656 -46.679688 47.722656 -46.722656 48.578125 -46.765625 C 49.441406 -46.816406 50.378906 -46.863281 51.390625 -46.90625 C 52.398438 -46.945312 53.320312 -46.988281 54.15625 -47.03125 C 54.988281 -47.082031 55.539062 -47.109375 55.8125 -47.109375 L 58.578125 -47.109375 C 59.859375 -47.148438 61.015625 -47.160156 62.046875 -47.140625 C 63.078125 -47.117188 63.945312 -47.109375 64.65625 -47.109375 C 66.582031 -47.054688 68.21875 -46.972656 69.5625 -46.859375 C 70.90625 -46.753906 72.300781 -46.640625 73.75 -46.515625 L 75.46875 -46.3125 L 76.921875 -46.171875 C 77.535156 -46.128906 78.148438 -46.050781 78.765625 -45.9375 C 79.378906 -45.832031 80.128906 -45.710938 81.015625 -45.578125 C 82.148438 -45.453125 82.765625 -45.234375 82.859375 -44.921875 C 82.898438 -44.796875 82.851562 -44.617188 82.71875 -44.390625 C 82.550781 -44.171875 82.378906 -44.0625 82.203125 -44.0625 C 82.023438 -44.0625 81.9375 -44.171875 81.9375 -44.390625 C 81.84375 -44.703125 81.6875 -44.859375 81.46875 -44.859375 L 80.875 -45.0625 C 80.695312 -45.101562 80.53125 -45.132812 80.375 -45.15625 C 80.226562 -45.175781 80.109375 -45.1875 80.015625 -45.1875 C 79.710938 -45.1875 79.515625 -45.207031 79.421875 -45.25 C 79.242188 -45.300781 78.75 -45.378906 77.9375 -45.484375 C 77.125 -45.597656 76.539062 -45.675781 76.1875 -45.71875 L 75.40625 -45.78125 L 74.875 -45.84375 L 69.921875 -46.3125 L 65.96875 -46.578125 L 64.3125 -46.640625 L 60.03125 -46.640625 C 59.894531 -46.722656 58.707031 -46.722656 56.46875 -46.640625 C 56.03125 -46.640625 55.316406 -46.617188 54.328125 -46.578125 C 53.335938 -46.535156 52.25 -46.46875 51.0625 -46.375 C 49.875 -46.289062 48.796875 -46.210938 47.828125 -46.140625 C 46.859375 -46.078125 46.195312 -46.023438 45.84375 -45.984375 C 45.757812 -45.984375 45.671875 -45.972656 45.578125 -45.953125 C 45.492188 -45.929688 45.410156 -45.921875 45.328125 -45.921875 L 45.1875 -45.71875 C 45.144531 -45.675781 45.085938 -45.628906 45.015625 -45.578125 C 44.953125 -45.535156 44.898438 -45.472656 44.859375 -45.390625 L 44.65625 -44.984375 L 44.46875 -44.796875 L 44.328125 -44.59375 L 43.9375 -44.203125 C 43.757812 -44.023438 43.671875 -43.914062 43.671875 -43.875 C 43.671875 -43.875 43.5625 -43.75 43.34375 -43.5 C 43.125 -43.257812 42.859375 -42.988281 42.546875 -42.6875 L 39.3125 -39.3125 C 39.09375 -39.09375 38.894531 -38.894531 38.71875 -38.71875 C 38.539062 -38.539062 38.453125 -38.429688 38.453125 -38.390625 C 38.453125 -38.347656 38.410156 -38.285156 38.328125 -38.203125 C 38.242188 -38.109375 38.003906 -37.875 37.609375 -37.5 C 37.210938 -37.125 36.78125 -36.691406 36.3125 -36.203125 C 35.851562 -35.722656 35.445312 -35.296875 35.09375 -34.921875 C 34.738281 -34.554688 34.5625 -34.347656 34.5625 -34.296875 L 33.84375 -33.515625 L 33.046875 -32.71875 C 33.046875 -32.71875 33.015625 -32.671875 32.953125 -32.578125 C 32.890625 -32.492188 32.8125 -32.410156 32.71875 -32.328125 C 32.632812 -32.285156 32.4375 -32.085938 32.125 -31.734375 C 31.820312 -31.378906 31.492188 -31.003906 31.140625 -30.609375 L 29.6875 -29.03125 L 29.296875 -28.5625 C 29.203125 -28.476562 29.109375 -28.378906 29.015625 -28.265625 C 28.929688 -28.160156 28.738281 -27.972656 28.4375 -27.703125 L 26.984375 -26.0625 L 24.875 -23.609375 C 24.65625 -23.390625 24.429688 -23.109375 24.203125 -22.765625 L 23.953125 -22.5 C 23.859375 -22.363281 23.753906 -22.226562 23.640625 -22.09375 C 23.535156 -21.96875 23.414062 -21.835938 23.28125 -21.703125 L 23.15625 -21.5 L 22.625 -20.78125 C 22.09375 -20.164062 21.546875 -19.570312 20.984375 -19 L 19.265625 -17.015625 L 18.140625 -15.703125 L 16.15625 -13.328125 L 15.5 -12.46875 L 13.65625 -10.15625 L 13.125 -9.375 C 13.039062 -9.238281 12.929688 -9.09375 12.796875 -8.9375 C 12.660156 -8.78125 12.550781 -8.640625 12.46875 -8.515625 C 12.207031 -8.242188 11.679688 -7.5625 10.890625 -6.46875 L 8.90625 -3.765625 C 8.550781 -3.273438 8.207031 -2.765625 7.875 -2.234375 C 7.550781 -1.710938 7.367188 -1.363281 7.328125 -1.1875 C 7.328125 -1.101562 7.367188 -1.015625 7.453125 -0.921875 C 7.585938 -0.878906 7.585938 -0.789062 7.453125 -0.65625 Z M 7.453125 -0.65625 "/></g></g></g><g fill="#ffffff" fill-opacity="1"><g transform="translate(31.103512, 76.435828)"><g><path d="M 23.75 -36.28125 C 24.007812 -35.976562 23.960938 -35.582031 23.609375 -35.09375 C 23.484375 -34.875 23.253906 -34.585938 22.921875 -34.234375 C 22.585938 -33.878906 22.335938 -33.660156 22.171875 -33.578125 L 21.171875 -32.859375 C 20.992188 -32.679688 20.757812 -32.503906 20.46875 -32.328125 C 20.1875 -32.148438 19.960938 -31.992188 19.796875 -31.859375 L 18.796875 -31.265625 C 18.535156 -31.085938 18.335938 -31 18.203125 -31 C 18.023438 -30.914062 17.914062 -30.851562 17.875 -30.8125 C 17.875 -30.71875 17.765625 -30.628906 17.546875 -30.546875 L 17.15625 -30.40625 C 16.882812 -30.28125 16.429688 -30.050781 15.796875 -29.71875 C 15.160156 -29.382812 14.488281 -29.050781 13.78125 -28.71875 C 13.082031 -28.394531 12.488281 -28.125 12 -27.90625 C 11.65625 -27.726562 11.414062 -27.640625 11.28125 -27.640625 C 11.144531 -27.640625 10.769531 -27.484375 10.15625 -27.171875 L 9.03125 -26.71875 C 8.988281 -26.675781 8.835938 -26.609375 8.578125 -26.515625 C 8.316406 -26.429688 7.960938 -26.28125 7.515625 -26.0625 L 5.015625 -24.9375 L 4.6875 -24.734375 L 3.5625 -23.609375 C 2.945312 -22.992188 2.273438 -22.320312 1.546875 -21.59375 C 0.828125 -20.875 0.421875 -20.425781 0.328125 -20.25 L 0.328125 -20.125 C 0.367188 -20.070312 0.476562 -20.09375 0.65625 -20.1875 C 0.695312 -20.1875 0.71875 -20.195312 0.71875 -20.21875 C 0.71875 -20.238281 0.742188 -20.25 0.796875 -20.25 C 1.054688 -20.382812 1.347656 -20.515625 1.671875 -20.640625 C 2.003906 -20.773438 2.4375 -20.929688 2.96875 -21.109375 C 3.675781 -21.328125 4.09375 -21.347656 4.21875 -21.171875 C 4.257812 -21.085938 4.171875 -20.910156 3.953125 -20.640625 C 3.335938 -20.023438 2.96875 -19.585938 2.84375 -19.328125 L 2.765625 -19.125 C 2.546875 -18.6875 2.484375 -18.46875 2.578125 -18.46875 L 2.703125 -18.46875 L 2.96875 -18.53125 C 3.320312 -18.664062 3.9375 -18.929688 4.8125 -19.328125 C 5.695312 -19.722656 6.359375 -20.007812 6.796875 -20.1875 L 8.4375 -20.90625 C 8.570312 -20.90625 8.703125 -20.894531 8.828125 -20.875 C 8.960938 -20.851562 8.878906 -20.734375 8.578125 -20.515625 C 8.179688 -20.378906 7.972656 -20.300781 7.953125 -20.28125 C 7.929688 -20.257812 7.90625 -20.238281 7.875 -20.21875 C 7.851562 -20.195312 7.601562 -20.078125 7.125 -19.859375 C 6.945312 -19.816406 6.800781 -19.738281 6.6875 -19.625 C 6.582031 -19.507812 6.488281 -19.453125 6.40625 -19.453125 C 5.957031 -19.285156 5.703125 -19.164062 5.640625 -19.09375 C 5.578125 -19.03125 5.4375 -18.953125 5.21875 -18.859375 C 5.082031 -18.816406 4.679688 -18.648438 4.015625 -18.359375 C 3.359375 -18.078125 2.898438 -17.914062 2.640625 -17.875 L 2.5 -17.8125 C 2.375 -17.769531 2.203125 -17.8125 1.984375 -17.9375 C 1.710938 -18.15625 1.6875 -18.53125 1.90625 -19.0625 L 2.109375 -19.453125 C 2.203125 -19.679688 2.332031 -19.90625 2.5 -20.125 C 2.675781 -20.34375 2.789062 -20.453125 2.84375 -20.453125 C 2.882812 -20.453125 2.90625 -20.472656 2.90625 -20.515625 C 2.90625 -20.554688 2.796875 -20.535156 2.578125 -20.453125 L 1.84375 -20.1875 C 1.488281 -20.09375 1.25 -19.984375 1.125 -19.859375 L 0.71875 -19.59375 L 0.65625 -19.59375 L 0.265625 -19.390625 L -0.53125 -18.609375 L -0.65625 -18.53125 L -0.859375 -18.40625 L -1.0625 -18.203125 L -1.390625 -17.9375 L -1.578125 -17.8125 C -1.671875 -17.71875 -1.78125 -17.695312 -1.90625 -17.75 C -1.957031 -17.789062 -2.035156 -17.84375 -2.140625 -17.90625 C -2.253906 -17.976562 -2.3125 -18.054688 -2.3125 -18.140625 C -2.3125 -18.273438 -2.253906 -18.40625 -2.140625 -18.53125 C -2.035156 -18.664062 -1.9375 -18.773438 -1.84375 -18.859375 L -1.25 -19.53125 L -0.65625 -20.25 L -0.390625 -20.515625 L 1.90625 -22.953125 C 2.257812 -23.265625 2.535156 -23.53125 2.734375 -23.75 C 2.929688 -23.96875 3.03125 -24.078125 3.03125 -24.078125 C 2.988281 -24.117188 2.890625 -24.117188 2.734375 -24.078125 C 2.578125 -24.035156 2.5 -23.992188 2.5 -23.953125 C 2.457031 -23.898438 2.40625 -23.875 2.34375 -23.875 C 2.28125 -23.875 2.222656 -23.851562 2.171875 -23.8125 L 0.984375 -23.421875 C 0.640625 -23.328125 0.398438 -23.238281 0.265625 -23.15625 L -0.390625 -22.828125 C -0.742188 -22.734375 -0.96875 -22.6875 -1.0625 -22.6875 C -1.320312 -22.6875 -1.382812 -22.820312 -1.25 -23.09375 C -1.164062 -23.175781 -0.988281 -23.265625 -0.71875 -23.359375 L 1.3125 -24.078125 L 1.984375 -24.34375 C 2.066406 -24.425781 2.195312 -24.492188 2.375 -24.546875 C 2.632812 -24.671875 2.8125 -24.734375 2.90625 -24.734375 C 2.945312 -24.734375 2.976562 -24.742188 3 -24.765625 C 3.019531 -24.785156 3.03125 -24.796875 3.03125 -24.796875 C 3.03125 -24.796875 3.226562 -24.882812 3.625 -25.0625 L 4.21875 -25.265625 C 4.3125 -25.347656 4.441406 -25.46875 4.609375 -25.625 C 4.785156 -25.78125 4.960938 -25.945312 5.140625 -26.125 L 7.390625 -28.109375 L 8.78125 -29.296875 L 10.890625 -30.9375 C 10.929688 -30.976562 11.140625 -31.128906 11.515625 -31.390625 C 11.890625 -31.660156 12.273438 -31.925781 12.671875 -32.1875 L 13.78125 -32.921875 L 14.375 -33.3125 L 15.109375 -33.703125 C 16.648438 -34.585938 18.1875 -35.25 19.71875 -35.6875 L 20.25 -35.828125 C 20.601562 -35.992188 21.046875 -36.125 21.578125 -36.21875 L 22.296875 -36.34375 C 22.648438 -36.4375 22.96875 -36.472656 23.25 -36.453125 C 23.539062 -36.429688 23.707031 -36.375 23.75 -36.28125 Z M 23.09375 -35.296875 C 23.09375 -35.296875 23.101562 -35.316406 23.125 -35.359375 C 23.144531 -35.398438 23.15625 -35.441406 23.15625 -35.484375 C 23.113281 -35.617188 23.023438 -35.707031 22.890625 -35.75 C 22.804688 -35.800781 22.550781 -35.800781 22.125 -35.75 C 21.707031 -35.707031 21.457031 -35.664062 21.375 -35.625 L 20.3125 -35.296875 C 19.738281 -35.117188 19.054688 -34.882812 18.265625 -34.59375 C 17.472656 -34.3125 16.769531 -34.015625 16.15625 -33.703125 C 15.320312 -33.265625 14.441406 -32.75 13.515625 -32.15625 C 12.597656 -31.5625 11.894531 -31.066406 11.40625 -30.671875 L 10.890625 -30.28125 C 10.835938 -30.28125 10.582031 -30.09375 10.125 -29.71875 C 9.664062 -29.34375 9.140625 -28.898438 8.546875 -28.390625 C 7.953125 -27.890625 7.4375 -27.441406 7 -27.046875 L 6.203125 -26.390625 C 6.160156 -26.390625 6.140625 -26.320312 6.140625 -26.1875 C 6.140625 -26.144531 6.359375 -26.210938 6.796875 -26.390625 C 7.015625 -26.472656 7.1875 -26.554688 7.3125 -26.640625 C 7.445312 -26.734375 7.539062 -26.78125 7.59375 -26.78125 C 7.675781 -26.78125 7.894531 -26.867188 8.25 -27.046875 C 8.425781 -27.128906 8.566406 -27.191406 8.671875 -27.234375 C 8.785156 -27.285156 8.863281 -27.3125 8.90625 -27.3125 C 8.945312 -27.3125 9.1875 -27.398438 9.625 -27.578125 L 11.078125 -28.171875 L 12.40625 -28.765625 L 13.328125 -29.09375 C 13.410156 -29.132812 13.5625 -29.195312 13.78125 -29.28125 C 14.007812 -29.375 14.207031 -29.488281 14.375 -29.625 L 15.640625 -30.21875 L 16.359375 -30.609375 L 17.15625 -31 L 19.390625 -32.265625 C 19.828125 -32.523438 20.265625 -32.804688 20.703125 -33.109375 C 21.148438 -33.421875 21.460938 -33.664062 21.640625 -33.84375 L 22.296875 -34.375 C 22.335938 -34.375 22.46875 -34.523438 22.6875 -34.828125 Z M 23.09375 -35.296875 "/></g></g></g><g fill="#ffffff" fill-opacity="1"><g transform="translate(40.602899, 76.435828)"><g><path d="M -0.65625 -18.015625 C -1.1875 -17.960938 -1.515625 -17.945312 -1.640625 -17.96875 C -1.773438 -18 -1.863281 -18.125 -1.90625 -18.34375 C -2 -18.5625 -1.914062 -18.890625 -1.65625 -19.328125 C -1.300781 -19.859375 -0.789062 -20.382812 -0.125 -20.90625 C 0.53125 -21.4375 1.1875 -21.8125 1.84375 -22.03125 C 2.90625 -22.425781 3.5 -22.445312 3.625 -22.09375 C 3.664062 -21.914062 3.179688 -21.476562 2.171875 -20.78125 C 1.597656 -20.382812 1.125 -20.085938 0.75 -19.890625 C 0.382812 -19.691406 0.0234375 -19.546875 -0.328125 -19.453125 C -0.722656 -19.367188 -0.96875 -19.21875 -1.0625 -19 C -1.226562 -18.820312 -1.25 -18.710938 -1.125 -18.671875 C -0.726562 -18.535156 1.335938 -19.28125 5.078125 -20.90625 L 5.21875 -20.984375 L 5.40625 -20.984375 L 5.46875 -20.90625 C 5.644531 -20.820312 5.671875 -20.710938 5.546875 -20.578125 L 4.6875 -20.1875 L 1.71875 -18.859375 C 1.144531 -18.554688 0.691406 -18.359375 0.359375 -18.265625 C 0.0351562 -18.179688 -0.300781 -18.097656 -0.65625 -18.015625 Z M -0.125 -20.1875 C -0.175781 -20.144531 -0.101562 -20.15625 0.09375 -20.21875 C 0.289062 -20.28125 0.566406 -20.398438 0.921875 -20.578125 C 1.234375 -20.753906 1.570312 -20.960938 1.9375 -21.203125 C 2.3125 -21.453125 2.523438 -21.597656 2.578125 -21.640625 C 2.578125 -21.722656 2.453125 -21.707031 2.203125 -21.59375 C 1.960938 -21.488281 1.734375 -21.394531 1.515625 -21.3125 C 1.296875 -21.257812 0.976562 -21.078125 0.5625 -20.765625 C 0.144531 -20.460938 -0.0820312 -20.269531 -0.125 -20.1875 Z M -0.125 -20.1875 "/></g></g></g><g fill="#ffffff" fill-opacity="1"><g transform="translate(50.423372, 59.706493)"><g><path d="M 12.78125 -22.015625 L 21.671875 0 L 16.28125 0 L 14.65625 -4.40625 L 6.265625 -4.40625 L 4.640625 0 L -0.75 0 L 8.140625 -22.015625 Z M 12.9375 -8.8125 L 10.484375 -15.21875 L 10.4375 -15.21875 L 7.984375 -8.8125 Z M 12.9375 -8.8125 "/></g></g></g><g fill="#ffffff" fill-opacity="1"><g transform="translate(68.838376, 59.706493)"><g><path d="M 1.59375 -22.015625 L 7.984375 -22.015625 C 11.035156 -22.015625 13.644531 -20.96875 15.8125 -18.875 C 17.988281 -16.789062 19.078125 -14.171875 19.078125 -11.015625 C 19.078125 -7.847656 17.992188 -5.21875 15.828125 -3.125 C 13.671875 -1.039062 11.054688 0 7.984375 0 L 1.59375 0 Z M 6.625 -4.484375 L 7.390625 -4.484375 C 9.222656 -4.484375 10.722656 -5.097656 11.890625 -6.328125 C 13.054688 -7.566406 13.644531 -9.125 13.65625 -11 C 13.65625 -12.863281 13.070312 -14.414062 11.90625 -15.65625 C 10.75 -16.90625 9.242188 -17.53125 7.390625 -17.53125 L 6.625 -17.53125 Z M 6.625 -4.484375 "/></g></g></g><g fill="#ffffff" fill-opacity="1"><g transform="translate(86.025661, 59.706493)"><g><path d="M 8.484375 0 L -0.75 -22.015625 L 4.90625 -22.015625 L 10.46875 -7.546875 L 16.015625 -22.015625 L 21.671875 -22.015625 L 12.4375 0 Z M 8.484375 0 "/></g></g></g><g fill="#ffffff" fill-opacity="1"><g transform="translate(104.440668, 59.706493)"><g><path d="M 14.203125 -22.015625 L 14.203125 -17.609375 L 6.625 -17.609375 L 6.625 -13.234375 L 13.875 -13.234375 L 13.875 -8.828125 L 6.625 -8.828125 L 6.625 -4.40625 L 14.203125 -4.40625 L 14.203125 0 L 1.59375 0 L 1.59375 -22.015625 Z M 14.203125 -22.015625 "/></g></g></g><g fill="#ffffff" fill-opacity="1"><g transform="translate(117.411012, 59.706493)"><g><path d="M 1.59375 -22.015625 L 9.46875 -22.015625 C 11.59375 -22.015625 13.320312 -21.445312 14.65625 -20.3125 C 15.988281 -19.1875 16.65625 -17.578125 16.65625 -15.484375 C 16.65625 -13.859375 16.25 -12.5 15.4375 -11.40625 C 14.625 -10.3125 13.523438 -9.539062 12.140625 -9.09375 L 19.71875 0 L 13.34375 0 L 6.625 -8.703125 L 6.625 0 L 1.59375 0 Z M 6.625 -12.25 L 7.203125 -12.25 C 7.671875 -12.25 8.0625 -12.253906 8.375 -12.265625 C 8.695312 -12.285156 9.0625 -12.347656 9.46875 -12.453125 C 9.882812 -12.566406 10.210938 -12.71875 10.453125 -12.90625 C 10.703125 -13.101562 10.914062 -13.390625 11.09375 -13.765625 C 11.28125 -14.140625 11.375 -14.59375 11.375 -15.125 C 11.375 -15.664062 11.28125 -16.117188 11.09375 -16.484375 C 10.914062 -16.859375 10.703125 -17.144531 10.453125 -17.34375 C 10.210938 -17.539062 9.882812 -17.691406 9.46875 -17.796875 C 9.0625 -17.898438 8.695312 -17.960938 8.375 -17.984375 C 8.0625 -18.003906 7.671875 -18.015625 7.203125 -18.015625 L 6.625 -18.015625 Z M 6.625 -12.25 "/></g></g></g><g fill="#ffffff" fill-opacity="1"><g transform="translate(134.011132, 59.706493)"><g><path d="M 0.21875 -17.609375 L 0.21875 -22.015625 L 15.6875 -22.015625 L 15.6875 -17.609375 L 10.46875 -17.609375 L 10.46875 0 L 5.4375 0 L 5.4375 -17.609375 Z M 0.21875 -17.609375 "/></g></g></g><g fill="#ffffff" fill-opacity="1"><g transform="translate(147.408509, 59.706493)"><g><path d="M 6.625 -22.015625 L 6.625 0 L 1.59375 0 L 1.59375 -22.015625 Z M 6.625 -22.015625 "/></g></g></g><g fill="#ffffff" fill-opacity="1"><g transform="translate(153.119329, 59.706493)"><g><path d="M 9.71875 -22.421875 C 10.90625 -22.421875 12.066406 -22.242188 13.203125 -21.890625 C 14.347656 -21.546875 15.195312 -21.207031 15.75 -20.875 L 16.546875 -20.328125 L 14.515625 -16.328125 C 14.359375 -16.441406 14.132812 -16.582031 13.84375 -16.75 C 13.5625 -16.914062 13.03125 -17.140625 12.25 -17.421875 C 11.46875 -17.710938 10.738281 -17.859375 10.0625 -17.859375 C 9.226562 -17.859375 8.582031 -17.675781 8.125 -17.3125 C 7.675781 -16.957031 7.453125 -16.476562 7.453125 -15.875 C 7.453125 -15.570312 7.554688 -15.289062 7.765625 -15.03125 C 7.984375 -14.78125 8.347656 -14.503906 8.859375 -14.203125 C 9.378906 -13.910156 9.832031 -13.675781 10.21875 -13.5 C 10.613281 -13.320312 11.21875 -13.054688 12.03125 -12.703125 C 13.457031 -12.097656 14.671875 -11.273438 15.671875 -10.234375 C 16.679688 -9.191406 17.1875 -8.015625 17.1875 -6.703125 C 17.1875 -5.429688 16.957031 -4.320312 16.5 -3.375 C 16.050781 -2.4375 15.429688 -1.703125 14.640625 -1.171875 C 13.847656 -0.640625 12.96875 -0.242188 12 0.015625 C 11.039062 0.273438 10.003906 0.40625 8.890625 0.40625 C 7.929688 0.40625 6.988281 0.304688 6.0625 0.109375 C 5.132812 -0.0859375 4.359375 -0.332031 3.734375 -0.625 C 3.109375 -0.914062 2.546875 -1.203125 2.046875 -1.484375 C 1.554688 -1.773438 1.191406 -2.019531 0.953125 -2.21875 L 0.609375 -2.515625 L 3.125 -6.71875 C 3.332031 -6.539062 3.625 -6.3125 4 -6.03125 C 4.375 -5.757812 5.035156 -5.394531 5.984375 -4.9375 C 6.941406 -4.476562 7.785156 -4.25 8.515625 -4.25 C 10.628906 -4.25 11.6875 -4.96875 11.6875 -6.40625 C 11.6875 -6.707031 11.609375 -6.984375 11.453125 -7.234375 C 11.304688 -7.492188 11.039062 -7.753906 10.65625 -8.015625 C 10.28125 -8.273438 9.941406 -8.476562 9.640625 -8.625 C 9.347656 -8.78125 8.867188 -9.015625 8.203125 -9.328125 C 7.535156 -9.640625 7.039062 -9.875 6.71875 -10.03125 C 5.382812 -10.6875 4.351562 -11.507812 3.625 -12.5 C 2.894531 -13.488281 2.53125 -14.550781 2.53125 -15.6875 C 2.53125 -17.664062 3.257812 -19.28125 4.71875 -20.53125 C 6.175781 -21.789062 7.84375 -22.421875 9.71875 -22.421875 Z M 9.71875 -22.421875 "/></g></g></g><g fill="#ffffff" fill-opacity="1"><g transform="translate(168.54511, 59.706493)"><g><path d="M 6.625 -22.015625 L 6.625 0 L 1.59375 0 L 1.59375 -22.015625 Z M 6.625 -22.015625 "/></g></g></g><g fill="#ffffff" fill-opacity="1"><g transform="translate(174.255929, 59.706493)"><g><path d="M 6.625 -13.65625 L 6.625 0 L 1.59375 0 L 1.59375 -22.015625 L 6.625 -22.015625 L 15.375 -8.359375 L 15.421875 -8.359375 L 15.421875 -22.015625 L 20.4375 -22.015625 L 20.4375 0 L 15.421875 0 L 6.671875 -13.65625 Z M 6.625 -13.65625 "/></g></g></g><g fill="#ffffff" fill-opacity="1"><g transform="translate(193.791887, 59.706493)"><g><path d="M 21.515625 -12.328125 L 21.515625 -7.546875 C 20.941406 -4.929688 19.691406 -2.953125 17.765625 -1.609375 C 15.847656 -0.265625 13.707031 0.40625 11.34375 0.40625 C 8.375 0.40625 5.84375 -0.703125 3.75 -2.921875 C 1.65625 -5.148438 0.609375 -7.84375 0.609375 -11 C 0.609375 -14.195312 1.628906 -16.898438 3.671875 -19.109375 C 5.722656 -21.316406 8.28125 -22.421875 11.34375 -22.421875 C 14.914062 -22.421875 17.742188 -21.164062 19.828125 -18.65625 L 16.546875 -15.046875 C 15.367188 -16.929688 13.734375 -17.875 11.640625 -17.875 C 10.085938 -17.875 8.765625 -17.203125 7.671875 -15.859375 C 6.578125 -14.515625 6.03125 -12.894531 6.03125 -11 C 6.03125 -9.125 6.578125 -7.523438 7.671875 -6.203125 C 8.765625 -4.878906 10.085938 -4.21875 11.640625 -4.21875 C 12.921875 -4.21875 14.035156 -4.601562 14.984375 -5.375 C 15.929688 -6.144531 16.40625 -7.171875 16.40625 -8.453125 L 11.34375 -8.453125 L 11.34375 -12.328125 Z M 21.515625 -12.328125 "/></g></g></g><g fill="#ffffff" fill-opacity="1"><g transform="translate(47.146233, 78.55787)"><g><path d="M 9.515625 0.140625 C 7.929688 0.140625 6.503906 -0.207031 5.234375 -0.90625 C 3.972656 -1.601562 2.984375 -2.570312 2.265625 -3.8125 C 1.546875 -5.050781 1.1875 -6.4375 1.1875 -7.96875 C 1.1875 -9.5 1.546875 -10.878906 2.265625 -12.109375 C 2.984375 -13.347656 3.976562 -14.316406 5.25 -15.015625 C 6.53125 -15.710938 7.957031 -16.0625 9.53125 -16.0625 C 10.71875 -16.0625 11.8125 -15.863281 12.8125 -15.46875 C 13.8125 -15.070312 14.660156 -14.492188 15.359375 -13.734375 L 14.28125 -12.671875 C 13.039062 -13.929688 11.472656 -14.5625 9.578125 -14.5625 C 8.316406 -14.5625 7.171875 -14.269531 6.140625 -13.6875 C 5.109375 -13.113281 4.300781 -12.328125 3.71875 -11.328125 C 3.132812 -10.328125 2.84375 -9.207031 2.84375 -7.96875 C 2.84375 -6.71875 3.132812 -5.59375 3.71875 -4.59375 C 4.300781 -3.59375 5.109375 -2.800781 6.140625 -2.21875 C 7.171875 -1.644531 8.316406 -1.359375 9.578125 -1.359375 C 11.484375 -1.359375 13.050781 -2 14.28125 -3.28125 L 15.359375 -2.203125 C 14.660156 -1.441406 13.804688 -0.859375 12.796875 -0.453125 C 11.785156 -0.0546875 10.691406 0.140625 9.515625 0.140625 Z M 9.515625 0.140625 "/></g></g></g><g fill="#ffffff" fill-opacity="1"><g transform="translate(70.755086, 78.55787)"><g><path d="M 9.5625 0.140625 C 7.976562 0.140625 6.546875 -0.210938 5.265625 -0.921875 C 3.984375 -1.628906 2.984375 -2.597656 2.265625 -3.828125 C 1.546875 -5.054688 1.1875 -6.4375 1.1875 -7.96875 C 1.1875 -9.5 1.546875 -10.878906 2.265625 -12.109375 C 2.984375 -13.335938 3.984375 -14.300781 5.265625 -15 C 6.546875 -15.707031 7.976562 -16.0625 9.5625 -16.0625 C 11.132812 -16.0625 12.550781 -15.710938 13.8125 -15.015625 C 15.082031 -14.316406 16.082031 -13.347656 16.8125 -12.109375 C 17.539062 -10.878906 17.90625 -9.5 17.90625 -7.96875 C 17.90625 -6.4375 17.539062 -5.050781 16.8125 -3.8125 C 16.082031 -2.570312 15.082031 -1.601562 13.8125 -0.90625 C 12.550781 -0.207031 11.132812 0.140625 9.5625 0.140625 Z M 9.5625 -1.359375 C 10.8125 -1.359375 11.941406 -1.644531 12.953125 -2.21875 C 13.972656 -2.789062 14.769531 -3.578125 15.34375 -4.578125 C 15.925781 -5.585938 16.21875 -6.71875 16.21875 -7.96875 C 16.21875 -9.207031 15.925781 -10.332031 15.34375 -11.34375 C 14.769531 -12.351562 13.972656 -13.140625 12.953125 -13.703125 C 11.941406 -14.273438 10.8125 -14.5625 9.5625 -14.5625 C 8.300781 -14.5625 7.15625 -14.273438 6.125 -13.703125 C 5.101562 -13.140625 4.300781 -12.351562 3.71875 -11.34375 C 3.132812 -10.332031 2.84375 -9.207031 2.84375 -7.96875 C 2.84375 -6.71875 3.132812 -5.585938 3.71875 -4.578125 C 4.300781 -3.578125 5.101562 -2.789062 6.125 -2.21875 C 7.15625 -1.644531 8.300781 -1.359375 9.5625 -1.359375 Z M 9.5625 -1.359375 "/></g></g></g><g fill="#ffffff" fill-opacity="1"><g transform="translate(97.09275, 78.55787)"><g><path d="M 19.125 -15.921875 L 19.125 0 L 17.515625 0 L 17.515625 -12.734375 L 11.265625 -2.03125 L 10.46875 -2.03125 L 4.203125 -12.671875 L 4.203125 0 L 2.59375 0 L 2.59375 -15.921875 L 3.984375 -15.921875 L 10.890625 -4.125 L 17.75 -15.921875 Z M 19.125 -15.921875 "/></g></g></g><g fill="#ffffff" fill-opacity="1"><g transform="translate(126.068261, 78.55787)"><g><path d="M 8.546875 -15.921875 C 10.585938 -15.921875 12.179688 -15.4375 13.328125 -14.46875 C 14.484375 -13.5 15.0625 -12.164062 15.0625 -10.46875 C 15.0625 -8.769531 14.484375 -7.4375 13.328125 -6.46875 C 12.179688 -5.507812 10.585938 -5.03125 8.546875 -5.03125 L 4.28125 -5.03125 L 4.28125 0 L 2.59375 0 L 2.59375 -15.921875 Z M 8.515625 -6.5 C 10.085938 -6.5 11.289062 -6.84375 12.125 -7.53125 C 12.957031 -8.226562 13.375 -9.207031 13.375 -10.46875 C 13.375 -11.757812 12.957031 -12.75 12.125 -13.4375 C 11.289062 -14.125 10.085938 -14.46875 8.515625 -14.46875 L 4.28125 -14.46875 L 4.28125 -6.5 Z M 8.515625 -6.5 "/></g></g></g><g fill="#ffffff" fill-opacity="1"><g transform="translate(149.654369, 78.55787)"><g><path d="M 12.578125 -4.25 L 3.703125 -4.25 L 1.796875 0 L 0.046875 0 L 7.328125 -15.921875 L 8.984375 -15.921875 L 16.265625 0 L 14.484375 0 Z M 11.96875 -5.625 L 8.140625 -14.171875 L 4.328125 -5.625 Z M 11.96875 -5.625 "/></g></g></g><g fill="#ffffff" fill-opacity="1"><g transform="translate(173.21775, 78.55787)"><g><path d="M 15.90625 -15.921875 L 15.90625 0 L 14.515625 0 L 4.28125 -12.921875 L 4.28125 0 L 2.59375 0 L 2.59375 -15.921875 L 3.984375 -15.921875 L 14.234375 -3 L 14.234375 -15.921875 Z M 15.90625 -15.921875 "/></g></g></g><g fill="#ffffff" fill-opacity="1"><g transform="translate(198.964172, 78.55787)"><g><path d="M 8.046875 -5.5 L 8.046875 0 L 6.390625 0 L 6.390625 -5.5 L 0.015625 -15.921875 L 1.8125 -15.921875 L 7.28125 -6.984375 L 12.734375 -15.921875 L 14.421875 -15.921875 Z M 8.046875 -5.5 "/></g></g></g></svg>